<?xml version="1.0" encoding="UTF-8"?><svg id="Vrstva_1" xmlns="http://www.w3.org/2000/svg" viewBox="0 0 324.11 324.11"><defs><style>.cls-1{fill:#1d1d1b;}.cls-1,.cls-2{stroke-width:0px;}.cls-2{fill:#e1251b;}</style></defs><path class="cls-2" d="M113.48,145.48h36.76c3.7,0,6.71-3,6.71-6.71v-14.37c-17.42-.68-32.7-9.82-41.8-23.45,2.5-2.04,4.99-4.1,7.46-6.19.34-.22.69-.44,1.03-.67,7.08,11.17,19.3,18.77,33.31,19.45v-35.35c0-3.7-3-6.71-6.71-6.71h-36.76c-3.7,0-6.71,3-6.71,6.71v60.58c0,3.7,3,6.71,6.71,6.71Z"/><path class="cls-2" d="M210.87,154.96c3.58,0,6.47-2.9,6.47-6.47V56.23c0-3.58-2.9-6.47-6.47-6.47h-39.77c-3.58,0-6.47,2.9-6.47,6.47v57.36c15.25-.24,28.54-8.68,35.66-21.09,2.5,1.73,5,3.44,7.49,5.17.46.39.92.78,1.39,1.17-9.12,15.16-25.65,25.37-44.54,25.6v24.04c0,3.58,2.9,6.47,6.47,6.47h39.77Z"/><polygon class="cls-1" points="77.02 203.8 59.76 180.5 54.55 180.5 54.55 216.73 61.22 216.73 61.22 193.04 78.38 216.73 83.64 216.73 83.64 180.5 77.02 180.5 77.02 203.8"/><polygon class="cls-1" points="115.35 210.89 97.89 210.89 97.89 201.51 114.37 201.51 114.37 195.62 97.89 195.62 97.89 186.33 115.35 186.33 115.35 180.5 91.22 180.5 91.22 216.73 115.35 216.73 115.35 210.89"/><path class="cls-1" d="M131.66,211.38c.96-1.69,1.44-3.65,1.44-5.88v-25h-6.66v25.24c0,1.49-.46,2.68-1.39,3.57-.92.89-2.16,1.34-3.72,1.34h-2.14v6.08h2.14c2.4,0,4.48-.47,6.25-1.41,1.77-.94,3.13-2.25,4.08-3.94Z"/><polygon class="cls-1" points="147.2 180.5 140.54 180.5 140.54 216.73 162.71 216.73 162.71 210.89 147.2 210.89 147.2 180.5"/><polygon class="cls-1" points="167.58 216.73 191.7 216.73 191.7 210.89 174.24 210.89 174.24 201.51 190.73 201.51 190.73 195.62 174.24 195.62 174.24 186.33 191.7 186.33 191.7 180.5 167.58 180.5 167.58 216.73"/><path class="cls-1" d="M203.81,203.36h6.91c2.46,0,4.64-.45,6.52-1.34,1.88-.89,3.36-2.19,4.45-3.89,1.08-1.7,1.63-3.75,1.63-6.15s-.54-4.55-1.61-6.25c-1.07-1.7-2.55-3-4.45-3.89-1.9-.89-4.08-1.34-6.54-1.34h-13.57v36.23h6.66v-13.37ZM203.81,186.33h7c1.17,0,2.19.24,3.06.71.88.47,1.56,1.12,2.07,1.95.5.83.75,1.81.75,2.94s-.25,2.08-.75,2.92c-.5.84-1.19,1.5-2.07,1.97-.88.47-1.9.71-3.06.71h-7v-11.19Z"/><polygon class="cls-1" points="245.1 175.83 250.84 167.8 244.52 167.8 241.35 172.18 238.19 167.8 231.87 167.8 237.56 175.83 245.1 175.83"/><path class="cls-1" d="M253.27,212.21c1.07-1.59,1.6-3.42,1.6-5.5,0-2.43-.72-4.47-2.16-6.13-1.44-1.65-3.61-2.95-6.49-3.89l-6.66-2.09c-1.33-.42-2.32-1.01-2.97-1.77-.65-.76-.97-1.65-.97-2.65,0-.88.23-1.65.71-2.33.47-.68,1.13-1.21,1.97-1.58.84-.37,1.82-.56,2.92-.56,1.85,0,3.49.5,4.94,1.51,1.44,1,2.5,2.4,3.19,4.18l5.5-2.43c-.65-1.82-1.63-3.4-2.94-4.74-1.31-1.35-2.88-2.4-4.69-3.16-1.82-.76-3.81-1.14-5.98-1.14-2.37,0-4.47.45-6.3,1.34-1.83.89-3.27,2.13-4.3,3.72-1.04,1.59-1.56,3.42-1.56,5.5,0,2.4.72,4.47,2.16,6.2,1.44,1.73,3.57,3.04,6.4,3.92l6.95,2.24c1.26.42,2.21.97,2.85,1.65.63.68.95,1.56.95,2.63,0,.91-.24,1.69-.71,2.33-.47.65-1.14,1.16-1.99,1.53-.86.37-1.87.56-3.04.56-2.08,0-3.94-.59-5.59-1.78-1.65-1.18-2.92-2.81-3.79-4.89l-5.54,2.38c.68,2.01,1.73,3.77,3.14,5.28,1.41,1.51,3.1,2.68,5.06,3.53,1.96.84,4.08,1.26,6.35,1.26,2.53,0,4.73-.45,6.61-1.36,1.88-.91,3.36-2.16,4.43-3.74Z"/><polygon class="cls-1" points="273.01 167.42 264.75 167.42 261.58 175.83 267.86 175.83 273.01 167.42"/><rect class="cls-1" x="261.39" y="180.5" width="6.66" height="36.23"/><polygon class="cls-2" points="81.01 226.45 76.97 226.45 58.78 246.82 58.78 226.45 55.67 226.45 55.67 262.68 58.78 262.68 58.78 251.35 65.11 244.25 78.19 262.68 82.03 262.68 67.29 241.86 81.01 226.45"/><path class="cls-2" d="M115.1,231.1c-1.65-1.67-3.56-2.96-5.71-3.87-2.16-.91-4.47-1.36-6.93-1.36s-4.82.45-6.98,1.36c-2.16.91-4.06,2.2-5.71,3.87-1.65,1.67-2.94,3.64-3.87,5.91-.92,2.27-1.39,4.78-1.39,7.54s.46,5.28,1.39,7.56c.92,2.29,2.2,4.26,3.84,5.93,1.64,1.67,3.54,2.96,5.71,3.87,2.17.91,4.51,1.36,7,1.36s4.78-.45,6.96-1.36c2.17-.91,4.08-2.2,5.71-3.87,1.64-1.67,2.92-3.65,3.84-5.93.92-2.29,1.39-4.81,1.39-7.56s-.46-5.23-1.39-7.51-2.21-4.26-3.87-5.93ZM116.17,250.6c-.71,1.9-1.73,3.57-3.04,5.03-1.31,1.46-2.88,2.6-4.69,3.43-1.82.83-3.81,1.24-5.98,1.24s-4.21-.41-6.03-1.24c-1.82-.83-3.38-1.97-4.69-3.43-1.31-1.46-2.33-3.14-3.04-5.03-.71-1.9-1.07-3.92-1.07-6.06s.36-4.11,1.07-6.01c.71-1.9,1.73-3.57,3.04-5.03,1.31-1.46,2.88-2.6,4.69-3.43,1.82-.83,3.83-1.24,6.03-1.24s4.21.41,6.01,1.24c1.8.83,3.36,1.97,4.67,3.43,1.31,1.46,2.33,3.14,3.04,5.03.71,1.9,1.07,3.9,1.07,6.01s-.36,4.16-1.07,6.06Z"/><polygon class="cls-2" points="143.6 245.65 130.71 226.45 128.09 226.45 128.09 262.68 131.2 262.68 131.2 232.67 143.55 251.11 143.7 251.11 156.05 232.6 156.05 262.68 159.16 262.68 159.16 226.45 156.54 226.45 143.6 245.65"/><polygon class="cls-2" points="167.97 262.68 190.78 262.68 190.78 259.77 171.08 259.77 171.08 245.95 189.8 245.95 189.8 243.08 171.08 243.08 171.08 229.37 190.78 229.37 190.78 226.45 167.97 226.45 167.97 262.68"/><path class="cls-2" d="M218.4,228.66c-2.59-1.47-5.67-2.21-9.24-2.21h-11.72v36.23h11.72c3.57,0,6.65-.75,9.24-2.24,2.59-1.49,4.6-3.6,6.03-6.32,1.43-2.72,2.14-5.92,2.14-9.58s-.71-6.9-2.14-9.6c-1.43-2.71-3.44-4.8-6.03-6.27ZM221.59,252.59c-1.18,2.29-2.84,4.05-4.96,5.3-2.12,1.25-4.63,1.87-7.51,1.87h-8.56v-30.4h8.56c2.85,0,5.35.62,7.49,1.87,2.14,1.25,3.8,3.01,4.99,5.28,1.18,2.27,1.77,4.94,1.77,8.02s-.59,5.76-1.77,8.05Z"/><rect class="cls-2" x="233.23" y="226.45" width="3.11" height="36.23"/><polygon class="cls-2" points="245.15 262.68 267.96 262.68 267.96 259.77 248.26 259.77 248.26 245.95 266.99 245.95 266.99 243.08 248.26 243.08 248.26 229.37 267.96 229.37 267.96 226.45 245.15 226.45 245.15 262.68"/></svg>